<?xml version="1.0" encoding="utf-8"?>
<!-- Generator: Adobe Illustrator 27.8.1, SVG Export Plug-In . SVG Version: 6.00 Build 0)  -->
<svg version="1.1" id="Layer_1" xmlns="http://www.w3.org/2000/svg" xmlns:xlink="http://www.w3.org/1999/xlink" x="0px" y="0px"
	 viewBox="0 0 792 612" style="enable-background:new 0 0 792 612;" xml:space="preserve">
<style type="text/css">
	.st0{fill:#91D3CF;}
	.st1{fill:#114E76;}
	.st2{fill:#268EAA;}
</style>
<g>
	<g>
		<path class="st0" d="M430.67,263.05h7.12l-9.75,13.64h-6.85l-9.75-13.64h7.25l6,7.71L430.67,263.05z"/>
	</g>
	<g>
		<path class="st0" d="M418.54,262.69h-7.12l9.75-13.64h6.85l9.76,13.64h-7.25l-6-7.71L418.54,262.69z"/>
	</g>
	<g>
		<path class="st1" d="M194.39,326.45h-8.17v-18.19l-18.32-27.94h9.56l12.92,20.43l13.05-20.43h9.29l-18.32,27.75V326.45z"/>
		<path class="st1" d="M260.04,326.45h-8.57l-4.68-11.14h-21.82l-4.75,11.14h-8.3l20.3-46.46h7.51L260.04,326.45z M235.85,289.67
			l-7.91,18.45h15.88L235.85,289.67z"/>
		<path class="st1" d="M311.18,312.44c-1.19,2.83-2.87,5.28-5.04,7.35c-2.17,2.07-4.77,3.69-7.78,4.88
			c-3.01,1.19-6.32,1.78-9.92,1.78h-17.2v-46.13h17.2c3.6,0,6.91,0.58,9.92,1.75c3.01,1.17,5.6,2.78,7.78,4.84
			c2.17,2.07,3.86,4.5,5.04,7.32c1.19,2.81,1.78,5.84,1.78,9.1C312.96,306.56,312.37,309.61,311.18,312.44z M303.3,297.13
			c-0.77-1.92-1.85-3.58-3.24-5c-1.39-1.41-3.07-2.52-5.06-3.31c-1.98-0.8-4.19-1.19-6.61-1.19h-9.12v31.5h9.12
			c2.42,0,4.62-0.38,6.61-1.16c1.98-0.77,3.67-1.85,5.06-3.24c1.39-1.39,2.47-3.04,3.24-4.96c0.77-1.92,1.16-4.03,1.16-6.32
			C304.46,301.15,304.07,299.05,303.3,297.13z"/>
		<path class="st1" d="M334.58,280.31v46.13h-8.04v-46.13H334.58z"/>
		<path class="st1" d="M379.85,326.45l-11.37-16.08H358.3v16.08h-8.04v-46.13h20.56c2.64,0,5.02,0.34,7.15,1.02
			c2.13,0.68,3.93,1.65,5.4,2.9c1.47,1.25,2.6,2.79,3.39,4.61c0.79,1.82,1.19,3.86,1.19,6.1c0,1.93-0.28,3.66-0.82,5.17
			c-0.55,1.52-1.31,2.86-2.27,4.02c-0.97,1.16-2.12,2.15-3.46,2.96c-1.34,0.81-2.82,1.44-4.45,1.88l12.46,17.47H379.85z
			 M377.21,289.58c-1.68-1.3-4.03-1.95-7.07-1.95H358.3v15.55h11.9c2.91,0,5.22-0.71,6.94-2.12c1.72-1.41,2.58-3.31,2.58-5.69
			C379.72,292.81,378.88,290.88,377.21,289.58z"/>
		<path class="st1" d="M445.36,326.45h-8.57l-4.68-11.14H410.3l-4.75,11.14h-8.3l20.3-46.46h7.51L445.36,326.45z M421.18,289.67
			l-7.91,18.45h15.88L421.18,289.67z"/>
		<path class="st2" d="M456.63,326.45v-46.13h10.15v46.13H456.63z"/>
		<path class="st2" d="M510.41,326.45l-10.35-15.82l-10.41,15.82h-11.53l16.08-23.46l-15.42-22.67h11.86l9.69,14.96l9.75-14.96
			h11.53l-15.42,22.54l16.08,23.6H510.41z"/>
		<path class="st2" d="M554.04,289.67v36.78h-10.15v-36.78h-14.04v-9.36h38.23v9.36H554.04z"/>
		<path class="st2" d="M613.49,326.45l-4.22-10.35h-19.51l-4.22,10.35H575.2l19.77-46.46h9.36l19.77,46.46H613.49z M599.52,292.18
			l-6.13,14.96h12.26L599.52,292.18z"/>
	</g>
	<g>
		<path class="st0" d="M180.31,353.87c0.09,0.18,0.24,0.36,0.47,0.51c0.23,0.16,0.54,0.31,0.94,0.44c0.4,0.13,0.91,0.28,1.52,0.42
			c0.68,0.17,1.28,0.36,1.8,0.57c0.52,0.21,0.96,0.46,1.3,0.76c0.34,0.3,0.61,0.65,0.79,1.05c0.18,0.4,0.27,0.87,0.27,1.41
			c0,0.61-0.11,1.16-0.34,1.64c-0.23,0.48-0.54,0.88-0.94,1.22c-0.4,0.33-0.89,0.58-1.45,0.76c-0.56,0.17-1.18,0.26-1.86,0.26
			c-1,0-1.95-0.17-2.86-0.51c-0.91-0.34-1.75-0.86-2.52-1.56l1.36-1.62c0.63,0.54,1.26,0.96,1.9,1.24c0.64,0.29,1.36,0.43,2.17,0.43
			c0.7,0,1.26-0.15,1.67-0.44c0.41-0.29,0.62-0.69,0.62-1.2c0-0.23-0.04-0.44-0.12-0.63c-0.08-0.18-0.23-0.35-0.44-0.51
			c-0.22-0.15-0.51-0.3-0.89-0.43c-0.38-0.13-0.86-0.28-1.47-0.42c-0.69-0.16-1.3-0.34-1.84-0.53c-0.54-0.2-0.98-0.44-1.35-0.74
			s-0.64-0.65-0.83-1.07c-0.19-0.42-0.29-0.93-0.29-1.53c0-0.56,0.11-1.08,0.33-1.54c0.22-0.46,0.52-0.86,0.9-1.19
			c0.38-0.33,0.85-0.59,1.38-0.76c0.54-0.18,1.13-0.27,1.77-0.27c0.95,0,1.8,0.14,2.55,0.41c0.76,0.28,1.47,0.68,2.13,1.21
			l-1.22,1.71c-0.59-0.43-1.17-0.76-1.75-0.99c-0.58-0.23-1.16-0.34-1.75-0.34c-0.66,0-1.18,0.15-1.55,0.45
			c-0.37,0.3-0.55,0.67-0.55,1.1C180.18,353.47,180.23,353.69,180.31,353.87z"/>
		<path class="st0" d="M206.18,358.85c-0.33,0.81-0.8,1.52-1.4,2.13c-0.6,0.61-1.32,1.09-2.14,1.45c-0.82,0.36-1.73,0.53-2.73,0.53
			c-1,0-1.9-0.18-2.73-0.53c-0.82-0.35-1.53-0.83-2.12-1.43s-1.05-1.31-1.38-2.12c-0.33-0.81-0.5-1.67-0.5-2.58
			c0-0.91,0.17-1.77,0.5-2.58c0.33-0.81,0.8-1.52,1.4-2.13c0.6-0.61,1.31-1.09,2.14-1.45c0.82-0.36,1.73-0.53,2.73-0.53
			c0.99,0,1.9,0.18,2.73,0.53c0.82,0.35,1.53,0.83,2.12,1.43c0.59,0.6,1.05,1.31,1.38,2.12c0.33,0.81,0.5,1.67,0.5,2.58
			S206.51,358.04,206.18,358.85z M203.98,354.53c-0.22-0.56-0.52-1.05-0.9-1.47c-0.39-0.42-0.85-0.75-1.39-1
			c-0.54-0.24-1.13-0.37-1.77-0.37c-0.64,0-1.23,0.12-1.76,0.36c-0.53,0.24-0.99,0.56-1.37,0.98c-0.38,0.41-0.68,0.9-0.89,1.46
			c-0.22,0.56-0.32,1.15-0.32,1.78c0,0.63,0.11,1.22,0.32,1.78c0.21,0.56,0.52,1.05,0.9,1.47c0.39,0.42,0.85,0.75,1.39,0.99
			c0.54,0.25,1.13,0.37,1.77,0.37c0.64,0,1.22-0.12,1.76-0.36c0.53-0.24,0.99-0.57,1.37-0.98c0.38-0.41,0.68-0.9,0.89-1.45
			c0.21-0.56,0.32-1.15,0.32-1.78C204.3,355.68,204.19,355.08,203.98,354.53z"/>
		<path class="st0" d="M223.29,361.62c-0.36,0.28-0.75,0.52-1.17,0.72c-0.42,0.2-0.88,0.36-1.37,0.46c-0.5,0.1-1.05,0.16-1.65,0.16
			c-0.95,0-1.82-0.17-2.62-0.52c-0.8-0.34-1.49-0.81-2.07-1.41c-0.58-0.6-1.04-1.3-1.37-2.11c-0.33-0.81-0.5-1.68-0.5-2.62
			c0-0.92,0.16-1.79,0.49-2.6c0.33-0.81,0.78-1.52,1.37-2.13c0.59-0.61,1.29-1.09,2.1-1.44c0.81-0.35,1.71-0.53,2.69-0.53
			c0.59,0,1.13,0.05,1.61,0.15c0.49,0.1,0.93,0.24,1.34,0.41c0.41,0.18,0.78,0.39,1.12,0.64c0.34,0.25,0.67,0.52,0.98,0.81
			l-1.46,1.68c-0.52-0.48-1.06-0.87-1.64-1.16s-1.23-0.44-1.97-0.44c-0.61,0-1.18,0.12-1.7,0.36c-0.52,0.24-0.97,0.56-1.35,0.98
			c-0.38,0.41-0.68,0.89-0.88,1.45c-0.21,0.55-0.31,1.15-0.31,1.79s0.1,1.24,0.31,1.8c0.21,0.56,0.5,1.05,0.88,1.47
			c0.38,0.42,0.83,0.75,1.35,0.99c0.52,0.24,1.09,0.36,1.7,0.36c0.79,0,1.46-0.15,2.03-0.45c0.56-0.3,1.12-0.71,1.68-1.23l1.46,1.47
			C224,361.03,223.65,361.34,223.29,361.62z"/>
		<path class="st0" d="M232.77,349.84v12.9h-2.25v-12.9H232.77z"/>
		<path class="st0" d="M252.26,362.73h-2.39l-1.31-3.11h-6.1l-1.33,3.11h-2.32l5.67-12.99h2.1L252.26,362.73z M245.5,352.45
			l-2.21,5.16h4.44L245.5,352.45z"/>
		<path class="st0" d="M258.16,349.84h2.25v10.85h6.78v2.04h-9.03V349.84z"/>
		<path class="st0" d="M290.16,349.8h1.92l3.17,9.6l3.08-9.56h2.38l-4.5,12.99h-1.95l-3.17-9.27l-3.17,9.27h-1.95l-4.5-12.99h2.45
			l3.08,9.56L290.16,349.8z"/>
		<path class="st0" d="M316.25,351.88h-7.3v3.32h6.47v2.04h-6.47v3.45h7.39v2.04h-9.64v-12.9h9.54V351.88z"/>
		<path class="st0" d="M333.9,358.82c-0.33,0.79-0.8,1.48-1.41,2.06c-0.61,0.58-1.33,1.03-2.17,1.36c-0.84,0.33-1.77,0.5-2.77,0.5
			h-4.81v-12.9h4.81c1.01,0,1.93,0.16,2.77,0.49c0.84,0.33,1.57,0.78,2.17,1.35c0.61,0.58,1.08,1.26,1.41,2.04
			c0.33,0.79,0.5,1.63,0.5,2.54S334.23,358.03,333.9,358.82z M331.7,354.54c-0.22-0.54-0.52-1-0.91-1.4
			c-0.39-0.39-0.86-0.7-1.41-0.93c-0.55-0.22-1.17-0.33-1.85-0.33h-2.55v8.81h2.55c0.68,0,1.29-0.11,1.85-0.33
			c0.55-0.21,1.02-0.52,1.41-0.91c0.39-0.39,0.69-0.85,0.91-1.39c0.22-0.54,0.32-1.13,0.32-1.77
			C332.02,355.66,331.91,355.07,331.7,354.54z"/>
		<path class="st0" d="M352,358.82c-0.33,0.79-0.8,1.48-1.41,2.06c-0.61,0.58-1.33,1.03-2.17,1.36c-0.84,0.33-1.77,0.5-2.77,0.5
			h-4.81v-12.9h4.81c1.01,0,1.93,0.16,2.77,0.49c0.84,0.33,1.57,0.78,2.17,1.35c0.61,0.58,1.08,1.26,1.41,2.04
			c0.33,0.79,0.5,1.63,0.5,2.54S352.33,358.03,352,358.82z M349.79,354.54c-0.22-0.54-0.52-1-0.91-1.4
			c-0.39-0.39-0.86-0.7-1.41-0.93c-0.55-0.22-1.17-0.33-1.85-0.33h-2.55v8.81h2.55c0.68,0,1.29-0.11,1.85-0.33
			c0.55-0.21,1.03-0.52,1.41-0.91c0.39-0.39,0.69-0.85,0.91-1.39c0.21-0.54,0.32-1.13,0.32-1.77
			C350.12,355.66,350.01,355.07,349.79,354.54z"/>
		<path class="st0" d="M361.3,349.84v12.9h-2.25v-12.9H361.3z"/>
		<path class="st0" d="M377.44,349.84h2.25v12.9h-1.89l-7.1-9.18v9.18h-2.25v-12.9h2.1l6.9,8.92V349.84z"/>
		<path class="st0" d="M397.13,361.72c-0.39,0.24-0.8,0.46-1.25,0.65c-0.45,0.18-0.93,0.33-1.45,0.43c-0.51,0.1-1.06,0.16-1.62,0.16
			c-1.01,0-1.92-0.17-2.74-0.51c-0.82-0.34-1.53-0.8-2.11-1.4c-0.58-0.6-1.03-1.3-1.35-2.11c-0.32-0.81-0.48-1.69-0.48-2.63
			c0-0.91,0.16-1.77,0.49-2.58c0.33-0.81,0.78-1.52,1.37-2.13c0.59-0.61,1.29-1.09,2.11-1.45c0.82-0.36,1.71-0.53,2.68-0.53
			c0.56,0,1.08,0.04,1.54,0.12c0.46,0.08,0.89,0.19,1.28,0.34c0.39,0.15,0.76,0.33,1.12,0.54c0.35,0.21,0.69,0.46,1.02,0.75
			l-1.44,1.71c-0.25-0.21-0.5-0.4-0.76-0.57c-0.26-0.17-0.53-0.32-0.81-0.43c-0.28-0.12-0.59-0.21-0.93-0.28
			c-0.34-0.07-0.71-0.1-1.12-0.1c-0.59,0-1.14,0.12-1.65,0.36c-0.51,0.24-0.95,0.57-1.33,0.99c-0.38,0.42-0.67,0.9-0.88,1.46
			c-0.21,0.55-0.32,1.15-0.32,1.77c0,0.66,0.11,1.28,0.31,1.85c0.21,0.57,0.51,1.06,0.89,1.47c0.39,0.41,0.85,0.73,1.38,0.97
			c0.53,0.23,1.13,0.35,1.8,0.35c0.61,0,1.19-0.09,1.72-0.27c0.53-0.18,1-0.42,1.39-0.71v-2.43h-3.3v-1.97h5.49v5.42
			C397.87,361.22,397.51,361.47,397.13,361.72z"/>
		<path class="st0" d="M423.61,356.08c-0.27,0.55-0.64,1.01-1.11,1.38c-0.47,0.37-1.02,0.65-1.64,0.84
			c-0.63,0.19-1.3,0.29-2.01,0.29h-2.57v4.15h-2.25v-12.9h5.09c0.75,0,1.43,0.1,2.04,0.31c0.61,0.2,1.12,0.49,1.55,0.87
			c0.42,0.38,0.75,0.84,0.98,1.36c0.23,0.53,0.34,1.12,0.34,1.79C424.02,354.89,423.88,355.53,423.61,356.08z M420.96,352.46
			c-0.51-0.39-1.18-0.58-2.03-0.58h-2.64v4.66h2.64c0.86,0,1.54-0.21,2.04-0.64c0.5-0.43,0.75-0.99,0.75-1.69
			C421.72,353.44,421.46,352.85,420.96,352.46z"/>
		<path class="st0" d="M432.27,357.3v5.44h-2.25v-12.9h2.25v5.36h6.19v-5.36h2.25v12.9h-2.25v-5.44H432.27z"/>
		<path class="st0" d="M460.13,358.85c-0.33,0.81-0.8,1.52-1.4,2.13c-0.6,0.61-1.32,1.09-2.14,1.45c-0.82,0.36-1.73,0.53-2.73,0.53
			s-1.9-0.18-2.73-0.53c-0.82-0.35-1.53-0.83-2.12-1.43c-0.59-0.6-1.05-1.31-1.38-2.12c-0.33-0.81-0.5-1.67-0.5-2.58
			c0-0.91,0.17-1.77,0.5-2.58c0.33-0.81,0.8-1.52,1.4-2.13s1.32-1.09,2.14-1.45c0.82-0.36,1.73-0.53,2.73-0.53
			c1,0,1.9,0.18,2.73,0.53c0.82,0.35,1.53,0.83,2.12,1.43c0.59,0.6,1.05,1.31,1.38,2.12c0.33,0.81,0.5,1.67,0.5,2.58
			S460.46,358.04,460.13,358.85z M457.93,354.53c-0.21-0.56-0.51-1.05-0.9-1.47c-0.39-0.42-0.85-0.75-1.39-1
			c-0.54-0.24-1.13-0.37-1.77-0.37c-0.64,0-1.23,0.12-1.76,0.36c-0.53,0.24-0.99,0.56-1.37,0.98c-0.38,0.41-0.68,0.9-0.89,1.46
			c-0.21,0.56-0.32,1.15-0.32,1.78c0,0.63,0.11,1.22,0.32,1.78c0.21,0.56,0.52,1.05,0.9,1.47c0.39,0.42,0.85,0.75,1.39,0.99
			c0.54,0.25,1.13,0.37,1.77,0.37c0.64,0,1.23-0.12,1.76-0.36c0.53-0.24,0.99-0.57,1.37-0.98c0.38-0.41,0.68-0.9,0.89-1.45
			c0.21-0.56,0.32-1.15,0.32-1.78C458.25,355.68,458.14,355.08,457.93,354.53z"/>
		<path class="st0" d="M471.81,362.73h-2.29v-10.8h-4.09v-2.1h10.47v2.1h-4.09V362.73z"/>
		<path class="st0" d="M493.7,358.85c-0.33,0.81-0.8,1.52-1.4,2.13c-0.6,0.61-1.32,1.09-2.14,1.45c-0.82,0.36-1.73,0.53-2.73,0.53
			c-1,0-1.9-0.18-2.73-0.53c-0.82-0.35-1.53-0.83-2.12-1.43s-1.05-1.31-1.38-2.12c-0.33-0.81-0.5-1.67-0.5-2.58
			c0-0.91,0.17-1.77,0.5-2.58c0.33-0.81,0.8-1.52,1.4-2.13c0.6-0.61,1.32-1.09,2.14-1.45c0.82-0.36,1.73-0.53,2.73-0.53
			c1,0,1.9,0.18,2.73,0.53c0.82,0.35,1.53,0.83,2.12,1.43c0.59,0.6,1.05,1.31,1.38,2.12c0.33,0.81,0.5,1.67,0.5,2.58
			S494.03,358.04,493.7,358.85z M491.5,354.53c-0.21-0.56-0.51-1.05-0.9-1.47c-0.39-0.42-0.85-0.75-1.39-1
			c-0.54-0.24-1.13-0.37-1.77-0.37c-0.64,0-1.23,0.12-1.76,0.36c-0.53,0.24-0.99,0.56-1.37,0.98c-0.38,0.41-0.68,0.9-0.89,1.46
			s-0.32,1.15-0.32,1.78c0,0.63,0.11,1.22,0.32,1.78s0.52,1.05,0.9,1.47c0.39,0.42,0.85,0.75,1.39,0.99
			c0.54,0.25,1.13,0.37,1.77,0.37c0.64,0,1.23-0.12,1.76-0.36c0.53-0.24,0.99-0.57,1.37-0.98c0.38-0.41,0.68-0.9,0.89-1.45
			c0.21-0.56,0.32-1.15,0.32-1.78C491.82,355.68,491.71,355.08,491.5,354.53z"/>
		<path class="st0" d="M511.07,361.72c-0.39,0.24-0.8,0.46-1.25,0.65c-0.45,0.18-0.93,0.33-1.45,0.43c-0.51,0.1-1.06,0.16-1.62,0.16
			c-1.01,0-1.92-0.17-2.74-0.51c-0.82-0.34-1.53-0.8-2.11-1.4c-0.58-0.6-1.03-1.3-1.35-2.11c-0.32-0.81-0.48-1.69-0.48-2.63
			c0-0.91,0.16-1.77,0.49-2.58c0.33-0.81,0.78-1.52,1.37-2.13s1.29-1.09,2.11-1.45c0.82-0.36,1.71-0.53,2.68-0.53
			c0.56,0,1.08,0.04,1.54,0.12c0.46,0.08,0.89,0.19,1.28,0.34c0.39,0.15,0.76,0.33,1.12,0.54c0.35,0.21,0.69,0.46,1.02,0.75
			l-1.44,1.71c-0.25-0.21-0.5-0.4-0.76-0.57c-0.26-0.17-0.53-0.32-0.81-0.43c-0.28-0.12-0.59-0.21-0.93-0.28
			c-0.34-0.07-0.71-0.1-1.12-0.1c-0.59,0-1.14,0.12-1.65,0.36c-0.51,0.24-0.95,0.57-1.33,0.99c-0.38,0.42-0.67,0.9-0.88,1.46
			c-0.21,0.55-0.32,1.15-0.32,1.77c0,0.66,0.11,1.28,0.31,1.85c0.21,0.57,0.51,1.06,0.89,1.47c0.39,0.41,0.85,0.73,1.38,0.97
			c0.53,0.23,1.13,0.35,1.8,0.35c0.61,0,1.19-0.09,1.72-0.27c0.53-0.18,1-0.42,1.39-0.71v-2.43h-3.3v-1.97h5.49v5.42
			C511.81,361.22,511.45,361.47,511.07,361.72z"/>
		<path class="st0" d="M527.03,362.73l-3.18-4.5h-2.85v4.5h-2.25v-12.9h5.75c0.74,0,1.4,0.1,2,0.29c0.6,0.19,1.1,0.46,1.51,0.81
			s0.73,0.78,0.95,1.29c0.22,0.51,0.33,1.08,0.33,1.7c0,0.54-0.08,1.02-0.23,1.45c-0.15,0.42-0.37,0.8-0.64,1.12
			c-0.27,0.33-0.59,0.6-0.97,0.83c-0.38,0.23-0.79,0.4-1.24,0.53l3.48,4.88H527.03z M526.29,352.43c-0.47-0.36-1.13-0.55-1.98-0.55
			h-3.31v4.35h3.33c0.81,0,1.46-0.2,1.94-0.59c0.48-0.39,0.72-0.93,0.72-1.59C527,353.33,526.76,352.79,526.29,352.43z"/>
		<path class="st0" d="M548.11,362.73h-2.39l-1.31-3.11h-6.1l-1.33,3.11h-2.32l5.68-12.99h2.1L548.11,362.73z M541.35,352.45
			l-2.21,5.16h4.44L541.35,352.45z"/>
		<path class="st0" d="M563.59,356.08c-0.27,0.55-0.64,1.01-1.11,1.38c-0.47,0.37-1.02,0.65-1.64,0.84
			c-0.63,0.19-1.3,0.29-2.01,0.29h-2.57v4.15h-2.25v-12.9h5.09c0.75,0,1.43,0.1,2.04,0.31c0.61,0.2,1.12,0.49,1.55,0.87
			c0.42,0.38,0.75,0.84,0.98,1.36c0.23,0.53,0.34,1.12,0.34,1.79C563.99,354.89,563.86,355.53,563.59,356.08z M560.93,352.46
			c-0.51-0.39-1.18-0.58-2.03-0.58h-2.64v4.66h2.64c0.86,0,1.54-0.21,2.04-0.64c0.5-0.43,0.75-0.99,0.75-1.69
			C561.69,353.44,561.44,352.85,560.93,352.46z"/>
		<path class="st0" d="M572.25,357.3v5.44H570v-12.9h2.25v5.36h6.19v-5.36h2.25v12.9h-2.25v-5.44H572.25z"/>
		<path class="st0" d="M597.23,351.88h-7.3v3.32h6.47v2.04h-6.47v3.45h7.39v2.04h-9.64v-12.9h9.54V351.88z"/>
		<path class="st0" d="M611.99,362.73l-3.18-4.5h-2.85v4.5h-2.25v-12.9h5.75c0.74,0,1.4,0.1,2,0.29c0.6,0.19,1.1,0.46,1.51,0.81
			s0.73,0.78,0.95,1.29c0.22,0.51,0.33,1.08,0.33,1.7c0,0.54-0.08,1.02-0.23,1.45c-0.15,0.42-0.37,0.8-0.64,1.12
			c-0.27,0.33-0.59,0.6-0.97,0.83c-0.38,0.23-0.79,0.4-1.24,0.53l3.48,4.88H611.99z M611.25,352.43c-0.47-0.36-1.13-0.55-1.98-0.55
			h-3.31v4.35h3.33c0.81,0,1.46-0.2,1.94-0.59c0.48-0.39,0.72-0.93,0.72-1.59C611.95,353.33,611.72,352.79,611.25,352.43z"/>
	</g>
</g>
</svg>
